<?xml version="1.0" encoding="UTF-8" standalone="no"?> <svg xmlns="http://www.w3.org/2000/svg" xmlns:xlink="http://www.w3.org/1999/xlink" xmlns:serif="http://www.serif.com/" width="100%" height="100%" viewBox="0 0 154 53" xml:space="preserve" style="fill-rule:evenodd;clip-rule:evenodd;stroke-linejoin:round;stroke-miterlimit:2;"><g id="Layer-1" serif:id="Layer 1"><g><g><g><path d="M30.471,24.083l-7.466,7.465l3.84,3.84c1.581,-0.755 3.063,-1.784 4.373,-3.093c1.309,-1.309 2.338,-2.792 3.093,-4.373l-3.84,-3.839Z" style="fill:#27a59c;fill-rule:nonzero;"></path><path d="M17.779,36.774c3.061,0.435 6.223,-0.028 9.066,-1.386l-3.84,-3.84l-5.226,5.226Z" style="fill:#75b44c;fill-rule:nonzero;"></path><path d="M11.285,34.31l14.707,-14.707l4.479,4.48l-12.692,12.691c-2.28,-0.324 -4.503,-1.145 -6.494,-2.464Z" style="fill:#35416c;"></path><path d="M35.697,18.857c-0.324,-2.281 -1.145,-4.504 -2.464,-6.495l-7.241,7.241l4.479,4.48l5.226,-5.226Z" style="fill:#75b44c;fill-rule:nonzero;"></path><path d="M18.526,27.069l-4.479,-4.479l-7.242,7.241c0.577,0.87 1.249,1.697 2.016,2.464c0.767,0.767 1.593,1.438 2.464,2.015l7.241,-7.241Z" style="fill:#8bcad1;fill-rule:nonzero;"></path><path d="M4.341,23.336c0.324,2.281 1.145,4.504 2.464,6.495l7.242,-7.241l-4.48,-4.48l-5.226,5.226Z" style="fill:#27a59c;fill-rule:nonzero;"></path><path d="M9.567,18.11l12.692,-12.692c2.28,0.324 4.503,1.146 6.494,2.465l-14.706,14.707l-4.48,-4.48Z" style="fill:#75b44c;"></path><path d="M9.567,18.11l7.466,-7.465l-3.84,-3.84c-1.581,0.755 -3.063,1.784 -4.372,3.093c-1.31,1.309 -2.339,2.792 -3.093,4.372l3.839,3.84Z" style="fill:#35416c;fill-rule:nonzero;"></path><path d="M5.728,14.27c-1.358,2.843 -1.822,6.005 -1.387,9.066l5.226,-5.226l-3.839,-3.84Z" style="fill:#8bcad1;fill-rule:nonzero;"></path><path d="M43.355,21.122c0,-8.409 6.762,-15.257 15.171,-15.257c5.142,0 9.658,2.541 12.407,6.398c0.043,0.062 0.06,0.138 0.047,0.212c-0.013,0.074 -0.055,0.14 -0.117,0.183c-0.871,0.608 -3.942,2.747 -4.82,3.359c-0.062,0.043 -0.138,0.059 -0.212,0.046c-0.075,-0.014 -0.141,-0.057 -0.183,-0.119c-1.556,-2.245 -3.803,-3.621 -6.819,-3.621c-5.028,0 -8.625,3.858 -8.625,8.799c0,4.941 3.467,8.929 8.582,8.929c3.058,0 5.306,-1.376 6.862,-3.66c0.042,-0.063 0.109,-0.106 0.183,-0.12c0.075,-0.013 0.152,0.004 0.214,0.047c0.882,0.621 3.953,2.785 4.821,3.397c0.061,0.044 0.103,0.11 0.116,0.184c0.013,0.074 -0.004,0.15 -0.048,0.211c-2.749,3.856 -7.266,6.356 -12.408,6.356c-8.409,0 -15.171,-6.848 -15.171,-15.344" style="fill:#35416c;fill-rule:nonzero;"></path><path d="M79.764,19.972c0,0.156 0.126,0.283 0.283,0.283c0.963,0 4.051,0 4.051,0c2.991,0 4.291,-1.951 4.291,-3.944c0,-1.994 -1.343,-4.118 -4.118,-4.118l-4.224,0c-0.075,0 -0.147,0.03 -0.2,0.083c-0.054,0.053 -0.083,0.125 -0.083,0.2c0,1.249 0,6.248 0,7.496Zm1.427,5.786c-0.052,-0.08 -0.141,-0.128 -0.237,-0.128c-0.22,0 -0.63,0 -0.907,0c-0.075,0 -0.147,0.03 -0.2,0.083c-0.054,0.053 -0.083,0.125 -0.083,0.2c0,1.493 0,8.43 0,9.923c0,0.156 -0.127,0.283 -0.284,0.283c-1.107,0 -5.131,0 -6.238,0c-0.157,0 -0.284,-0.127 -0.284,-0.283c0,-2.859 0,-26.439 0,-29.298c0,-0.075 0.03,-0.147 0.083,-0.2c0.053,-0.053 0.125,-0.083 0.201,-0.083l11.94,0c6.935,0 10.056,4.941 10.056,9.883c0,4.089 -2.092,7.687 -6.635,8.997c-0.087,0.025 -0.158,0.091 -0.188,0.177c-0.03,0.086 -0.017,0.182 0.036,0.257c1.113,1.572 5.883,8.298 7.163,10.103c0.061,0.086 0.069,0.2 0.02,0.294c-0.048,0.094 -0.145,0.153 -0.251,0.153c-1.62,0 -6.323,0 -7.231,0c-0.096,0 -0.185,-0.048 -0.237,-0.127c-0.73,-1.112 -5.994,-9.123 -6.724,-10.234Z" style="fill:#35416c;fill-rule:nonzero;"></path><path d="M117.449,30.181c0.075,0 0.147,0.03 0.201,0.083c0.053,0.054 0.083,0.126 0.083,0.201l0,5.371c0,0.156 -0.127,0.283 -0.284,0.283c-2.218,0 -16.763,0 -18.981,0c-0.157,0 -0.284,-0.127 -0.284,-0.283c0,-2.859 0,-26.439 0,-29.298c0,-0.156 0.127,-0.283 0.284,-0.283c2.191,0 16.4,0 18.591,0c0.156,0 0.283,0.127 0.283,0.283c0,1.002 0,4.37 0,5.372c0,0.156 -0.127,0.283 -0.283,0.283l-11.786,0c-0.076,0 -0.148,0.03 -0.201,0.083c-0.053,0.053 -0.083,0.125 -0.083,0.2l0,5.589c0,0.075 0.03,0.147 0.083,0.2c0.053,0.053 0.125,0.083 0.201,0.083l10.269,0c0.075,0 0.147,0.03 0.2,0.083c0.054,0.053 0.083,0.125 0.083,0.2c0,1.024 0,4.522 0,5.545c0,0.076 -0.029,0.148 -0.083,0.201c-0.053,0.053 -0.125,0.083 -0.2,0.083c-1.525,0 -8.744,0 -10.269,0c-0.157,0 -0.284,0.127 -0.284,0.283c0,0.975 0,4.18 0,5.155c0,0.156 0.127,0.283 0.284,0.283c1.695,0 10.48,0 12.176,0Z" style="fill:#35416c;fill-rule:nonzero;"></path><path d="M137.627,23.289c0.091,0 0.176,-0.043 0.229,-0.116c0.054,-0.074 0.069,-0.168 0.041,-0.254c-0.484,-1.495 -2.297,-7.096 -2.989,-9.237c-0.038,-0.117 -0.147,-0.196 -0.27,-0.196c-0.124,0 -0.232,0.08 -0.27,0.197c-0.684,2.142 -2.474,7.744 -2.951,9.237c-0.028,0.086 -0.013,0.18 0.041,0.253c0.053,0.073 0.138,0.116 0.229,0.116c1.186,0 4.752,0 5.94,0Zm2.361,6.091c-0.038,-0.117 -0.147,-0.196 -0.27,-0.196c-1.334,0 -8.738,0 -10.076,0c-0.123,0 -0.233,0.08 -0.27,0.198c-0.32,1.004 -1.765,5.536 -2.085,6.54c-0.037,0.118 -0.147,0.197 -0.27,0.197c-0.998,0 -5.315,0 -6.668,0c-0.092,0 -0.179,-0.045 -0.232,-0.121c-0.053,-0.076 -0.066,-0.173 -0.033,-0.26c1.222,-3.303 9.979,-26.965 10.843,-29.298c0.041,-0.111 0.147,-0.185 0.266,-0.185c1.049,0 5.966,0 7.017,0c0.118,0 0.224,0.074 0.266,0.185c0.86,2.335 9.583,25.997 10.8,29.298c0.032,0.087 0.02,0.184 -0.033,0.26c-0.053,0.076 -0.14,0.121 -0.233,0.121c-1.347,0 -5.635,0 -6.626,0c-0.123,0 -0.232,-0.079 -0.27,-0.195c-0.325,-1.002 -1.801,-5.542 -2.126,-6.544Z" style="fill:#35416c;fill-rule:nonzero;"></path></g></g></g></g><path d="M7.515,47.561c-0.304,0 -0.594,-0.05 -0.871,-0.15c-0.277,-0.101 -0.519,-0.253 -0.728,-0.456c-0.208,-0.203 -0.373,-0.458 -0.496,-0.764c-0.122,-0.307 -0.183,-0.663 -0.183,-1.07c0,-0.402 0.063,-0.758 0.191,-1.069c0.127,-0.311 0.297,-0.574 0.51,-0.787c0.214,-0.213 0.459,-0.376 0.735,-0.489c0.277,-0.112 0.568,-0.169 0.871,-0.169c0.319,0 0.603,0.063 0.853,0.188c0.25,0.125 0.461,0.273 0.632,0.445l-0.661,0.808c-0.118,-0.103 -0.239,-0.187 -0.364,-0.254c-0.125,-0.066 -0.268,-0.099 -0.43,-0.099c-0.142,0 -0.276,0.032 -0.401,0.096c-0.125,0.063 -0.235,0.154 -0.33,0.272c-0.096,0.117 -0.172,0.262 -0.228,0.433c-0.057,0.172 -0.085,0.365 -0.085,0.581c0,0.451 0.094,0.796 0.283,1.036c0.189,0.24 0.437,0.361 0.746,0.361c0.186,0 0.352,-0.041 0.496,-0.122c0.145,-0.081 0.269,-0.177 0.371,-0.29l0.662,0.794c-0.206,0.235 -0.442,0.411 -0.709,0.529c-0.267,0.118 -0.555,0.176 -0.864,0.176Z" style="fill:#27a59c;fill-rule:nonzero;"></path><path d="M11.352,47.561c-0.27,0 -0.52,-0.043 -0.75,-0.128c-0.23,-0.086 -0.43,-0.211 -0.599,-0.375c-0.169,-0.164 -0.303,-0.366 -0.401,-0.607c-0.098,-0.24 -0.147,-0.512 -0.147,-0.815c0,-0.299 0.051,-0.568 0.151,-0.805c0.101,-0.238 0.233,-0.44 0.397,-0.607c0.164,-0.166 0.352,-0.294 0.562,-0.382c0.211,-0.088 0.429,-0.132 0.654,-0.132c0.27,0 0.505,0.046 0.706,0.14c0.201,0.093 0.368,0.22 0.5,0.382c0.132,0.161 0.231,0.35 0.298,0.566c0.066,0.215 0.099,0.446 0.099,0.691c0,0.112 -0.006,0.218 -0.019,0.316c-0.012,0.098 -0.023,0.169 -0.033,0.213l-2.094,0c0.058,0.22 0.164,0.373 0.316,0.459c0.151,0.086 0.33,0.129 0.536,0.129c0.128,0 0.251,-0.019 0.371,-0.055c0.12,-0.037 0.247,-0.092 0.379,-0.166l0.411,0.75c-0.2,0.142 -0.422,0.249 -0.665,0.32c-0.242,0.071 -0.466,0.106 -0.672,0.106Zm-0.691,-2.366l1.088,0c0,-0.142 -0.036,-0.266 -0.107,-0.372c-0.071,-0.105 -0.202,-0.158 -0.393,-0.158c-0.142,0 -0.266,0.042 -0.371,0.125c-0.106,0.084 -0.178,0.218 -0.217,0.405Z" style="fill:#27a59c;fill-rule:nonzero;"></path><path d="M13.513,47.473l0,-3.675l1.029,0l0.088,0.441l0.029,0c0.147,-0.142 0.315,-0.266 0.504,-0.371c0.188,-0.105 0.408,-0.158 0.658,-0.158c0.401,0 0.693,0.136 0.874,0.408c0.181,0.272 0.272,0.636 0.272,1.091l0,2.264l-1.264,0l0,-2.102c0,-0.235 -0.029,-0.392 -0.088,-0.47c-0.059,-0.079 -0.152,-0.118 -0.28,-0.118c-0.117,0 -0.215,0.025 -0.294,0.074c-0.078,0.049 -0.166,0.117 -0.264,0.205l0,2.411l-1.264,0Z" style="fill:#27a59c;fill-rule:nonzero;"></path><path d="M19.304,47.561c-0.24,0 -0.444,-0.035 -0.613,-0.106c-0.169,-0.071 -0.309,-0.173 -0.419,-0.305c-0.11,-0.133 -0.191,-0.291 -0.243,-0.474c-0.051,-0.184 -0.077,-0.389 -0.077,-0.614l0,-1.279l-0.485,0l0,-0.941l0.559,-0.044l0.147,-0.955l1.043,0l0,0.955l0.838,0l0,0.985l-0.838,0l0,1.257c0,0.206 0.044,0.347 0.133,0.423c0.088,0.075 0.191,0.113 0.308,0.113c0.059,0 0.117,-0.006 0.173,-0.018c0.056,-0.012 0.107,-0.026 0.151,-0.04l0.191,0.911c-0.098,0.029 -0.216,0.059 -0.353,0.088c-0.137,0.03 -0.309,0.044 -0.515,0.044Z" style="fill:#27a59c;fill-rule:nonzero;"></path><path d="M20.73,47.473l0,-3.675l1.029,0l0.089,0.632l0.029,0c0.137,-0.25 0.3,-0.432 0.489,-0.547c0.188,-0.115 0.373,-0.173 0.555,-0.173c0.112,0 0.203,0.006 0.272,0.018c0.068,0.013 0.129,0.031 0.183,0.055l-0.205,1.088c-0.069,-0.014 -0.134,-0.028 -0.195,-0.04c-0.061,-0.012 -0.134,-0.019 -0.217,-0.019c-0.132,0 -0.271,0.046 -0.415,0.136c-0.145,0.091 -0.261,0.252 -0.349,0.482l0,2.043l-1.265,0Z" style="fill:#27a59c;fill-rule:nonzero;"></path><path d="M25.361,47.561c-0.27,0 -0.52,-0.043 -0.75,-0.128c-0.23,-0.086 -0.43,-0.211 -0.599,-0.375c-0.169,-0.164 -0.302,-0.366 -0.4,-0.607c-0.098,-0.24 -0.147,-0.512 -0.147,-0.815c0,-0.299 0.05,-0.568 0.15,-0.805c0.101,-0.238 0.233,-0.44 0.397,-0.607c0.164,-0.166 0.352,-0.294 0.562,-0.382c0.211,-0.088 0.429,-0.132 0.655,-0.132c0.269,0 0.504,0.046 0.705,0.14c0.201,0.093 0.368,0.22 0.5,0.382c0.132,0.161 0.231,0.35 0.298,0.566c0.066,0.215 0.099,0.446 0.099,0.691c0,0.112 -0.006,0.218 -0.019,0.316c-0.012,0.098 -0.023,0.169 -0.033,0.213l-2.094,0c0.058,0.22 0.164,0.373 0.316,0.459c0.152,0.086 0.33,0.129 0.536,0.129c0.128,0 0.251,-0.019 0.371,-0.055c0.12,-0.037 0.247,-0.092 0.379,-0.166l0.412,0.75c-0.201,0.142 -0.423,0.249 -0.666,0.32c-0.242,0.071 -0.466,0.106 -0.672,0.106Zm-0.691,-2.366l1.088,0c0,-0.142 -0.036,-0.266 -0.107,-0.372c-0.071,-0.105 -0.202,-0.158 -0.393,-0.158c-0.142,0 -0.266,0.042 -0.371,0.125c-0.106,0.084 -0.178,0.218 -0.217,0.405Z" style="fill:#27a59c;fill-rule:nonzero;"></path><path d="M29.212,47.473l0,-2.69l-0.485,0l0,-0.941l0.485,-0.037l0,-0.051c0,-0.196 0.025,-0.383 0.074,-0.562c0.049,-0.179 0.131,-0.337 0.246,-0.474c0.115,-0.138 0.265,-0.247 0.448,-0.327c0.184,-0.081 0.413,-0.122 0.688,-0.122c0.171,0 0.323,0.015 0.455,0.044c0.133,0.03 0.24,0.059 0.324,0.089l-0.221,0.926c-0.059,-0.025 -0.12,-0.043 -0.184,-0.055c-0.063,-0.013 -0.125,-0.019 -0.183,-0.019c-0.118,0 -0.211,0.033 -0.28,0.099c-0.068,0.067 -0.103,0.185 -0.103,0.357l0,0.088l0.618,0l0,0.985l-0.618,0l0,2.69l-1.264,0Z" style="fill:#27a59c;fill-rule:nonzero;"></path><path d="M33.049,47.561c-0.235,0 -0.463,-0.043 -0.684,-0.128c-0.22,-0.086 -0.415,-0.211 -0.584,-0.375c-0.169,-0.164 -0.304,-0.366 -0.404,-0.607c-0.101,-0.24 -0.151,-0.512 -0.151,-0.815c0,-0.304 0.05,-0.576 0.151,-0.816c0.1,-0.24 0.235,-0.442 0.404,-0.607c0.169,-0.164 0.364,-0.289 0.584,-0.374c0.221,-0.086 0.449,-0.129 0.684,-0.129c0.235,0 0.462,0.043 0.68,0.129c0.218,0.085 0.411,0.21 0.58,0.374c0.17,0.165 0.305,0.367 0.408,0.607c0.103,0.24 0.155,0.512 0.155,0.816c0,0.303 -0.052,0.575 -0.155,0.815c-0.103,0.241 -0.238,0.443 -0.408,0.607c-0.169,0.164 -0.362,0.289 -0.58,0.375c-0.218,0.085 -0.445,0.128 -0.68,0.128Zm0,-1.014c0.191,0 0.327,-0.082 0.408,-0.246c0.081,-0.164 0.121,-0.386 0.121,-0.665c0,-0.28 -0.04,-0.501 -0.121,-0.666c-0.081,-0.164 -0.217,-0.246 -0.408,-0.246c-0.191,0 -0.327,0.082 -0.408,0.246c-0.081,0.165 -0.121,0.386 -0.121,0.666c0,0.279 0.04,0.501 0.121,0.665c0.081,0.164 0.217,0.246 0.408,0.246Z" style="fill:#27a59c;fill-rule:nonzero;"></path><path d="M35.533,47.473l0,-3.675l1.029,0l0.088,0.632l0.03,0c0.137,-0.25 0.3,-0.432 0.489,-0.547c0.188,-0.115 0.373,-0.173 0.555,-0.173c0.112,0 0.203,0.006 0.271,0.018c0.069,0.013 0.13,0.031 0.184,0.055l-0.206,1.088c-0.068,-0.014 -0.133,-0.028 -0.194,-0.04c-0.062,-0.012 -0.134,-0.019 -0.217,-0.019c-0.132,0 -0.271,0.046 -0.415,0.136c-0.145,0.091 -0.261,0.252 -0.35,0.482l0,2.043l-1.264,0Z" style="fill:#27a59c;fill-rule:nonzero;"></path><path d="M40.178,47.473l0,-4.777l1.809,0c0.254,0 0.498,0.024 0.731,0.073c0.233,0.049 0.436,0.132 0.61,0.25c0.174,0.118 0.312,0.276 0.415,0.474c0.103,0.199 0.155,0.447 0.155,0.746c0,0.343 -0.07,0.627 -0.21,0.853c-0.14,0.225 -0.327,0.402 -0.562,0.529l1.036,1.852l-1.411,0l-0.823,-1.602l-0.485,0l0,1.602l-1.265,0Zm1.265,-2.602l0.455,0c0.51,0 0.765,-0.21 0.765,-0.632c0,-0.206 -0.065,-0.348 -0.195,-0.426c-0.13,-0.079 -0.32,-0.118 -0.57,-0.118l-0.455,0l0,1.176Z" style="fill:#27a59c;fill-rule:nonzero;"></path><path d="M46.044,47.561c-0.27,0 -0.52,-0.043 -0.75,-0.128c-0.23,-0.086 -0.43,-0.211 -0.599,-0.375c-0.169,-0.164 -0.303,-0.366 -0.401,-0.607c-0.098,-0.24 -0.147,-0.512 -0.147,-0.815c0,-0.299 0.051,-0.568 0.151,-0.805c0.101,-0.238 0.233,-0.44 0.397,-0.607c0.164,-0.166 0.352,-0.294 0.562,-0.382c0.211,-0.088 0.429,-0.132 0.654,-0.132c0.27,0 0.505,0.046 0.706,0.14c0.201,0.093 0.368,0.22 0.5,0.382c0.132,0.161 0.231,0.35 0.298,0.566c0.066,0.215 0.099,0.446 0.099,0.691c0,0.112 -0.006,0.218 -0.019,0.316c-0.012,0.098 -0.023,0.169 -0.033,0.213l-2.094,0c0.058,0.22 0.164,0.373 0.316,0.459c0.151,0.086 0.33,0.129 0.536,0.129c0.128,0 0.251,-0.019 0.371,-0.055c0.12,-0.037 0.247,-0.092 0.379,-0.166l0.411,0.75c-0.2,0.142 -0.422,0.249 -0.665,0.32c-0.242,0.071 -0.466,0.106 -0.672,0.106Zm-0.691,-2.366l1.088,0c0,-0.142 -0.036,-0.266 -0.107,-0.372c-0.071,-0.105 -0.202,-0.158 -0.393,-0.158c-0.142,0 -0.266,0.042 -0.371,0.125c-0.106,0.084 -0.178,0.218 -0.217,0.405Z" style="fill:#27a59c;fill-rule:nonzero;"></path><path d="M49.337,47.561c-0.236,0 -0.484,-0.046 -0.746,-0.139c-0.263,-0.093 -0.489,-0.218 -0.68,-0.375l0.558,-0.779c0.333,0.245 0.632,0.367 0.897,0.367c0.132,0 0.227,-0.018 0.283,-0.055c0.056,-0.037 0.084,-0.092 0.084,-0.165c0,-0.049 -0.019,-0.092 -0.058,-0.129c-0.04,-0.037 -0.092,-0.071 -0.158,-0.103c-0.067,-0.032 -0.141,-0.062 -0.225,-0.092c-0.083,-0.029 -0.171,-0.063 -0.264,-0.103c-0.108,-0.044 -0.217,-0.096 -0.327,-0.158c-0.11,-0.061 -0.21,-0.136 -0.298,-0.224c-0.088,-0.088 -0.16,-0.19 -0.217,-0.305c-0.056,-0.115 -0.084,-0.248 -0.084,-0.4c0,-0.182 0.035,-0.346 0.106,-0.493c0.071,-0.147 0.171,-0.272 0.298,-0.375c0.127,-0.103 0.281,-0.182 0.459,-0.239c0.179,-0.056 0.376,-0.084 0.592,-0.084c0.304,0 0.565,0.05 0.783,0.151c0.218,0.1 0.408,0.212 0.569,0.334l-0.558,0.75c-0.132,-0.098 -0.262,-0.174 -0.39,-0.228c-0.127,-0.054 -0.247,-0.081 -0.36,-0.081c-0.215,0 -0.323,0.069 -0.323,0.206c0,0.049 0.018,0.09 0.055,0.125c0.037,0.034 0.087,0.066 0.151,0.095c0.063,0.03 0.137,0.058 0.22,0.085c0.083,0.027 0.172,0.057 0.265,0.092c0.107,0.039 0.218,0.088 0.33,0.147c0.113,0.059 0.215,0.131 0.305,0.217c0.091,0.085 0.165,0.188 0.221,0.308c0.056,0.12 0.084,0.264 0.084,0.43c0,0.172 -0.034,0.332 -0.102,0.482c-0.069,0.149 -0.17,0.279 -0.302,0.389c-0.132,0.11 -0.296,0.196 -0.492,0.257c-0.196,0.062 -0.422,0.092 -0.676,0.092Z" style="fill:#27a59c;fill-rule:nonzero;"></path><path d="M53.232,47.561c-0.269,0 -0.519,-0.043 -0.75,-0.128c-0.23,-0.086 -0.43,-0.211 -0.599,-0.375c-0.169,-0.164 -0.302,-0.366 -0.4,-0.607c-0.098,-0.24 -0.147,-0.512 -0.147,-0.815c0,-0.299 0.05,-0.568 0.15,-0.805c0.101,-0.238 0.233,-0.44 0.397,-0.607c0.164,-0.166 0.352,-0.294 0.563,-0.382c0.21,-0.088 0.428,-0.132 0.654,-0.132c0.269,0 0.504,0.046 0.705,0.14c0.201,0.093 0.368,0.22 0.5,0.382c0.132,0.161 0.232,0.35 0.298,0.566c0.066,0.215 0.099,0.446 0.099,0.691c0,0.112 -0.006,0.218 -0.018,0.316c-0.013,0.098 -0.024,0.169 -0.033,0.213l-2.095,0c0.059,0.22 0.164,0.373 0.316,0.459c0.152,0.086 0.331,0.129 0.536,0.129c0.128,0 0.252,-0.019 0.372,-0.055c0.12,-0.037 0.246,-0.092 0.378,-0.166l0.412,0.75c-0.201,0.142 -0.423,0.249 -0.665,0.32c-0.243,0.071 -0.467,0.106 -0.673,0.106Zm-0.691,-2.366l1.088,0c0,-0.142 -0.036,-0.266 -0.107,-0.372c-0.071,-0.105 -0.202,-0.158 -0.393,-0.158c-0.142,0 -0.266,0.042 -0.371,0.125c-0.105,0.084 -0.178,0.218 -0.217,0.405Z" style="fill:#27a59c;fill-rule:nonzero;"></path><path d="M56.275,47.561c-0.172,0 -0.326,-0.03 -0.463,-0.092c-0.137,-0.061 -0.254,-0.143 -0.349,-0.246c-0.096,-0.103 -0.168,-0.223 -0.217,-0.36c-0.049,-0.137 -0.074,-0.282 -0.074,-0.434c0,-0.382 0.157,-0.682 0.471,-0.9c0.313,-0.218 0.823,-0.364 1.529,-0.437c-0.03,-0.255 -0.201,-0.382 -0.515,-0.382c-0.132,0 -0.272,0.025 -0.419,0.077c-0.147,0.051 -0.316,0.128 -0.507,0.231l-0.441,-0.823c0.26,-0.157 0.522,-0.277 0.786,-0.36c0.265,-0.083 0.542,-0.125 0.831,-0.125c0.475,0 0.849,0.136 1.121,0.408c0.272,0.272 0.408,0.709 0.408,1.312l0,2.043l-1.029,0l-0.088,-0.353l-0.03,0c-0.147,0.133 -0.302,0.239 -0.466,0.32c-0.165,0.081 -0.347,0.121 -0.548,0.121Zm0.441,-0.97c0.103,0 0.187,-0.023 0.254,-0.07c0.066,-0.046 0.133,-0.106 0.202,-0.18l0,-0.5c-0.304,0.045 -0.512,0.111 -0.625,0.199c-0.113,0.088 -0.169,0.184 -0.169,0.287c0,0.176 0.113,0.264 0.338,0.264Z" style="fill:#27a59c;fill-rule:nonzero;"></path><path d="M59.259,47.473l0,-3.675l1.029,0l0.088,0.632l0.03,0c0.137,-0.25 0.3,-0.432 0.488,-0.547c0.189,-0.115 0.374,-0.173 0.555,-0.173c0.113,0 0.204,0.006 0.272,0.018c0.069,0.013 0.13,0.031 0.184,0.055l-0.206,1.088c-0.068,-0.014 -0.133,-0.028 -0.195,-0.04c-0.061,-0.012 -0.133,-0.019 -0.216,-0.019c-0.133,0 -0.271,0.046 -0.416,0.136c-0.144,0.091 -0.261,0.252 -0.349,0.482l0,2.043l-1.264,0Z" style="fill:#27a59c;fill-rule:nonzero;"></path><path d="M63.919,47.561c-0.26,0 -0.502,-0.043 -0.728,-0.128c-0.225,-0.086 -0.421,-0.211 -0.588,-0.375c-0.166,-0.164 -0.297,-0.366 -0.393,-0.607c-0.095,-0.24 -0.143,-0.512 -0.143,-0.815c0,-0.304 0.054,-0.576 0.161,-0.816c0.108,-0.24 0.253,-0.442 0.434,-0.607c0.181,-0.164 0.391,-0.289 0.629,-0.374c0.237,-0.086 0.486,-0.129 0.746,-0.129c0.22,0 0.418,0.034 0.595,0.103c0.176,0.068 0.336,0.162 0.478,0.279l-0.588,0.809c-0.084,-0.069 -0.156,-0.116 -0.217,-0.14c-0.061,-0.025 -0.126,-0.037 -0.195,-0.037c-0.235,0 -0.419,0.082 -0.551,0.246c-0.133,0.165 -0.199,0.386 -0.199,0.666c0,0.279 0.068,0.501 0.202,0.665c0.135,0.164 0.303,0.246 0.504,0.246c0.103,0 0.205,-0.022 0.305,-0.066c0.1,-0.044 0.195,-0.101 0.283,-0.169l0.485,0.823c-0.186,0.162 -0.388,0.273 -0.606,0.334c-0.218,0.062 -0.423,0.092 -0.614,0.092Z" style="fill:#27a59c;fill-rule:nonzero;"></path><path d="M65.727,47.473l0,-5.115l1.264,0l0,1.19l-0.059,0.632c0.128,-0.112 0.281,-0.219 0.46,-0.319c0.179,-0.101 0.393,-0.151 0.643,-0.151c0.402,0 0.693,0.136 0.875,0.408c0.181,0.272 0.272,0.636 0.272,1.091l0,2.264l-1.265,0l0,-2.102c0,-0.235 -0.029,-0.392 -0.088,-0.47c-0.059,-0.079 -0.152,-0.118 -0.279,-0.118c-0.118,0 -0.216,0.025 -0.294,0.074c-0.079,0.049 -0.167,0.117 -0.265,0.205l0,2.411l-1.264,0Z" style="fill:#27a59c;fill-rule:nonzero;"></path><path d="M73.106,47.561c-0.235,0 -0.463,-0.043 -0.683,-0.128c-0.221,-0.086 -0.415,-0.211 -0.584,-0.375c-0.169,-0.164 -0.304,-0.366 -0.405,-0.607c-0.1,-0.24 -0.15,-0.512 -0.15,-0.815c0,-0.304 0.05,-0.576 0.15,-0.816c0.101,-0.24 0.236,-0.442 0.405,-0.607c0.169,-0.164 0.363,-0.289 0.584,-0.374c0.22,-0.086 0.448,-0.129 0.683,-0.129c0.236,0 0.462,0.043 0.68,0.129c0.218,0.085 0.412,0.21 0.581,0.374c0.169,0.165 0.305,0.367 0.408,0.607c0.103,0.24 0.154,0.512 0.154,0.816c0,0.303 -0.051,0.575 -0.154,0.815c-0.103,0.241 -0.239,0.443 -0.408,0.607c-0.169,0.164 -0.363,0.289 -0.581,0.375c-0.218,0.085 -0.444,0.128 -0.68,0.128Zm0,-1.014c0.192,0 0.328,-0.082 0.408,-0.246c0.081,-0.164 0.122,-0.386 0.122,-0.665c0,-0.28 -0.041,-0.501 -0.122,-0.666c-0.08,-0.164 -0.216,-0.246 -0.408,-0.246c-0.191,0 -0.327,0.082 -0.407,0.246c-0.081,0.165 -0.122,0.386 -0.122,0.666c0,0.279 0.041,0.501 0.122,0.665c0.08,0.164 0.216,0.246 0.407,0.246Z" style="fill:#27a59c;fill-rule:nonzero;"></path><path d="M75.591,47.473l0,-3.675l1.029,0l0.088,0.441l0.029,0c0.147,-0.142 0.315,-0.266 0.504,-0.371c0.188,-0.105 0.408,-0.158 0.658,-0.158c0.401,0 0.693,0.136 0.874,0.408c0.182,0.272 0.272,0.636 0.272,1.091l0,2.264l-1.264,0l0,-2.102c0,-0.235 -0.029,-0.392 -0.088,-0.47c-0.059,-0.079 -0.152,-0.118 -0.279,-0.118c-0.118,0 -0.216,0.025 -0.294,0.074c-0.079,0.049 -0.167,0.117 -0.265,0.205l0,2.411l-1.264,0Z" style="fill:#27a59c;fill-rule:nonzero;"></path><g><path d="M81.441,47.473l0,-4.777l3.087,0l0,1.058l-1.822,0l0,0.75l1.558,0l0,1.058l-1.558,0l0,0.853l1.896,0l0,1.058l-3.161,0Z" style="fill:#35416c;fill-rule:nonzero;"></path><path d="M85.425,47.473l0,-3.675l1.029,0l0.088,0.441l0.03,0c0.147,-0.142 0.314,-0.266 0.503,-0.371c0.189,-0.105 0.408,-0.158 0.658,-0.158c0.402,0 0.693,0.136 0.875,0.408c0.181,0.272 0.272,0.636 0.272,1.091l0,2.264l-1.265,0l0,-2.102c0,-0.235 -0.029,-0.392 -0.088,-0.47c-0.059,-0.079 -0.152,-0.118 -0.279,-0.118c-0.118,0 -0.216,0.025 -0.294,0.074c-0.079,0.049 -0.167,0.117 -0.265,0.205l0,2.411l-1.264,0Z" style="fill:#35416c;fill-rule:nonzero;"></path><path d="M91.408,47.561c-0.27,0 -0.519,-0.043 -0.75,-0.128c-0.23,-0.086 -0.43,-0.211 -0.599,-0.375c-0.169,-0.164 -0.302,-0.366 -0.4,-0.607c-0.098,-0.24 -0.147,-0.512 -0.147,-0.815c0,-0.299 0.05,-0.568 0.15,-0.805c0.101,-0.238 0.233,-0.44 0.397,-0.607c0.164,-0.166 0.352,-0.294 0.562,-0.382c0.211,-0.088 0.429,-0.132 0.655,-0.132c0.269,0 0.504,0.046 0.705,0.14c0.201,0.093 0.368,0.22 0.5,0.382c0.132,0.161 0.232,0.35 0.298,0.566c0.066,0.215 0.099,0.446 0.099,0.691c0,0.112 -0.006,0.218 -0.018,0.316c-0.013,0.098 -0.024,0.169 -0.034,0.213l-2.094,0c0.059,0.22 0.164,0.373 0.316,0.459c0.152,0.086 0.331,0.129 0.536,0.129c0.128,0 0.251,-0.019 0.372,-0.055c0.12,-0.037 0.246,-0.092 0.378,-0.166l0.412,0.75c-0.201,0.142 -0.423,0.249 -0.666,0.32c-0.242,0.071 -0.466,0.106 -0.672,0.106Zm-0.691,-2.366l1.088,0c0,-0.142 -0.036,-0.266 -0.107,-0.372c-0.071,-0.105 -0.202,-0.158 -0.393,-0.158c-0.142,0 -0.266,0.042 -0.371,0.125c-0.105,0.084 -0.178,0.218 -0.217,0.405Z" style="fill:#35416c;fill-rule:nonzero;"></path><path d="M93.569,47.473l0,-3.675l1.029,0l0.088,0.632l0.029,0c0.138,-0.25 0.301,-0.432 0.489,-0.547c0.189,-0.115 0.374,-0.173 0.555,-0.173c0.113,0 0.203,0.006 0.272,0.018c0.069,0.013 0.13,0.031 0.184,0.055l-0.206,1.088c-0.069,-0.014 -0.133,-0.028 -0.195,-0.04c-0.061,-0.012 -0.133,-0.019 -0.217,-0.019c-0.132,0 -0.27,0.046 -0.415,0.136c-0.144,0.091 -0.261,0.252 -0.349,0.482l0,2.043l-1.264,0Z" style="fill:#35416c;fill-rule:nonzero;"></path><path d="M97.905,48.987c-0.21,0 -0.409,-0.016 -0.595,-0.048c-0.186,-0.031 -0.349,-0.084 -0.489,-0.158c-0.139,-0.073 -0.251,-0.167 -0.334,-0.283c-0.084,-0.115 -0.125,-0.256 -0.125,-0.422c0,-0.289 0.171,-0.524 0.514,-0.706l0,-0.029c-0.098,-0.069 -0.179,-0.152 -0.242,-0.25c-0.064,-0.098 -0.096,-0.225 -0.096,-0.382c0,-0.128 0.037,-0.253 0.11,-0.375c0.074,-0.123 0.174,-0.228 0.302,-0.316l0,-0.03c-0.132,-0.088 -0.249,-0.213 -0.349,-0.374c-0.101,-0.162 -0.151,-0.351 -0.151,-0.566c0,-0.226 0.044,-0.423 0.132,-0.592c0.089,-0.169 0.206,-0.309 0.353,-0.419c0.147,-0.11 0.315,-0.192 0.504,-0.246c0.188,-0.054 0.383,-0.081 0.584,-0.081c0.216,0 0.412,0.029 0.588,0.088l1.367,0l0,0.912l-0.529,0c0.015,0.044 0.028,0.1 0.04,0.169c0.013,0.068 0.019,0.139 0.019,0.213c0,0.215 -0.04,0.4 -0.118,0.555c-0.078,0.154 -0.184,0.28 -0.316,0.378c-0.132,0.098 -0.289,0.17 -0.47,0.217c-0.182,0.047 -0.375,0.07 -0.581,0.07c-0.123,0 -0.26,-0.017 -0.412,-0.052c-0.039,0.035 -0.063,0.065 -0.073,0.092c-0.01,0.027 -0.015,0.068 -0.015,0.122c0,0.083 0.039,0.14 0.118,0.172c0.078,0.032 0.21,0.048 0.397,0.048l0.551,0c0.46,0 0.817,0.075 1.069,0.224c0.253,0.15 0.379,0.393 0.379,0.732c0,0.2 -0.05,0.383 -0.151,0.547c-0.1,0.164 -0.242,0.305 -0.426,0.423c-0.184,0.117 -0.407,0.208 -0.669,0.272c-0.262,0.063 -0.557,0.095 -0.886,0.095Zm0.118,-3.425c0.118,0 0.213,-0.042 0.287,-0.125c0.073,-0.083 0.11,-0.213 0.11,-0.389c0,-0.172 -0.037,-0.298 -0.11,-0.379c-0.074,-0.081 -0.169,-0.121 -0.287,-0.121c-0.118,0 -0.213,0.04 -0.287,0.121c-0.073,0.081 -0.11,0.207 -0.11,0.379c0,0.176 0.037,0.306 0.11,0.389c0.074,0.083 0.169,0.125 0.287,0.125Zm0.088,2.646c0.206,0 0.377,-0.03 0.515,-0.092c0.137,-0.061 0.205,-0.143 0.205,-0.246c0,-0.098 -0.042,-0.159 -0.128,-0.184c-0.086,-0.024 -0.207,-0.036 -0.364,-0.036l-0.287,0c-0.147,0 -0.258,-0.004 -0.334,-0.011c-0.076,-0.008 -0.141,-0.019 -0.195,-0.034c-0.044,0.045 -0.077,0.086 -0.099,0.125c-0.022,0.04 -0.033,0.086 -0.033,0.14c0,0.118 0.066,0.203 0.198,0.257c0.133,0.054 0.307,0.081 0.522,0.081Z" style="fill:#35416c;fill-rule:nonzero;"></path><path d="M101.125,48.855c-0.128,0 -0.232,-0.006 -0.313,-0.018c-0.081,-0.013 -0.163,-0.031 -0.246,-0.056l0.221,-0.955c0.034,0.01 0.072,0.02 0.113,0.029c0.042,0.01 0.083,0.015 0.122,0.015c0.171,0 0.3,-0.033 0.386,-0.099c0.085,-0.066 0.148,-0.156 0.187,-0.268l0.044,-0.162l-1.396,-3.543l1.264,0l0.441,1.411c0.054,0.172 0.1,0.342 0.139,0.511c0.04,0.169 0.081,0.347 0.125,0.533l0.03,0c0.039,-0.176 0.077,-0.35 0.114,-0.522c0.037,-0.171 0.077,-0.345 0.121,-0.522l0.368,-1.411l1.205,0l-1.235,3.616c-0.098,0.25 -0.197,0.466 -0.298,0.647c-0.1,0.181 -0.216,0.331 -0.349,0.448c-0.132,0.118 -0.283,0.205 -0.452,0.261c-0.169,0.057 -0.366,0.085 -0.591,0.085Z" style="fill:#35416c;fill-rule:nonzero;"></path></g><path d="M106.99,47.561c-0.172,0 -0.326,-0.03 -0.463,-0.092c-0.137,-0.061 -0.254,-0.143 -0.349,-0.246c-0.096,-0.103 -0.168,-0.223 -0.217,-0.36c-0.049,-0.137 -0.074,-0.282 -0.074,-0.434c0,-0.382 0.157,-0.682 0.471,-0.9c0.313,-0.218 0.823,-0.364 1.529,-0.437c-0.03,-0.255 -0.201,-0.382 -0.515,-0.382c-0.132,0 -0.272,0.025 -0.419,0.077c-0.147,0.051 -0.316,0.128 -0.507,0.231l-0.441,-0.823c0.26,-0.157 0.522,-0.277 0.786,-0.36c0.265,-0.083 0.542,-0.125 0.831,-0.125c0.475,0 0.849,0.136 1.121,0.408c0.272,0.272 0.408,0.709 0.408,1.312l0,2.043l-1.029,0l-0.088,-0.353l-0.03,0c-0.147,0.133 -0.302,0.239 -0.466,0.32c-0.165,0.081 -0.347,0.121 -0.548,0.121Zm0.441,-0.97c0.103,0 0.187,-0.023 0.254,-0.07c0.066,-0.046 0.133,-0.106 0.202,-0.18l0,-0.5c-0.304,0.045 -0.512,0.111 -0.625,0.199c-0.113,0.088 -0.169,0.184 -0.169,0.287c0,0.176 0.113,0.264 0.338,0.264Z" style="fill:#27a59c;fill-rule:nonzero;"></path><path d="M109.974,47.473l0,-3.675l1.029,0l0.088,0.441l0.03,0c0.147,-0.142 0.314,-0.266 0.503,-0.371c0.189,-0.105 0.408,-0.158 0.658,-0.158c0.402,0 0.693,0.136 0.875,0.408c0.181,0.272 0.272,0.636 0.272,1.091l0,2.264l-1.265,0l0,-2.102c0,-0.235 -0.029,-0.392 -0.088,-0.47c-0.059,-0.079 -0.152,-0.118 -0.279,-0.118c-0.118,0 -0.216,0.025 -0.294,0.074c-0.079,0.049 -0.167,0.117 -0.265,0.205l0,2.411l-1.264,0Z" style="fill:#27a59c;fill-rule:nonzero;"></path><path d="M115.589,47.561c-0.23,0 -0.437,-0.044 -0.621,-0.132c-0.183,-0.088 -0.34,-0.216 -0.47,-0.382c-0.13,-0.167 -0.23,-0.369 -0.301,-0.607c-0.071,-0.237 -0.107,-0.505 -0.107,-0.804c0,-0.299 0.043,-0.569 0.129,-0.809c0.085,-0.24 0.198,-0.442 0.338,-0.606c0.139,-0.164 0.3,-0.291 0.481,-0.379c0.181,-0.088 0.365,-0.132 0.551,-0.132c0.201,0 0.365,0.033 0.493,0.099c0.127,0.066 0.247,0.156 0.36,0.268l-0.044,-0.529l0,-1.19l1.264,0l0,5.115l-1.029,0l-0.088,-0.338l-0.029,0c-0.128,0.127 -0.274,0.23 -0.438,0.309c-0.164,0.078 -0.327,0.117 -0.489,0.117Zm0.339,-1.029c0.098,0 0.183,-0.018 0.257,-0.055c0.073,-0.037 0.144,-0.106 0.213,-0.209l0,-1.353c-0.074,-0.068 -0.154,-0.115 -0.243,-0.139c-0.088,-0.025 -0.174,-0.037 -0.257,-0.037c-0.132,0 -0.251,0.066 -0.356,0.198c-0.106,0.133 -0.158,0.361 -0.158,0.684c0,0.333 0.047,0.568 0.143,0.706c0.096,0.137 0.229,0.205 0.401,0.205Z" style="fill:#27a59c;fill-rule:nonzero;"></path><g><path d="M122.16,47.561c-0.303,0 -0.594,-0.05 -0.871,-0.15c-0.276,-0.101 -0.519,-0.253 -0.727,-0.456c-0.209,-0.203 -0.374,-0.458 -0.496,-0.764c-0.123,-0.307 -0.184,-0.663 -0.184,-1.07c0,-0.402 0.064,-0.758 0.191,-1.069c0.127,-0.311 0.298,-0.574 0.511,-0.787c0.213,-0.213 0.458,-0.376 0.735,-0.489c0.277,-0.112 0.567,-0.169 0.871,-0.169c0.318,0 0.602,0.063 0.852,0.188c0.25,0.125 0.461,0.273 0.632,0.445l-0.661,0.808c-0.118,-0.103 -0.239,-0.187 -0.364,-0.254c-0.125,-0.066 -0.268,-0.099 -0.43,-0.099c-0.142,0 -0.275,0.032 -0.4,0.096c-0.125,0.063 -0.236,0.154 -0.331,0.272c-0.096,0.117 -0.172,0.262 -0.228,0.433c-0.056,0.172 -0.085,0.365 -0.085,0.581c0,0.451 0.095,0.796 0.283,1.036c0.189,0.24 0.438,0.361 0.746,0.361c0.187,0 0.352,-0.041 0.497,-0.122c0.144,-0.081 0.268,-0.177 0.371,-0.29l0.661,0.794c-0.206,0.235 -0.442,0.411 -0.709,0.529c-0.267,0.118 -0.555,0.176 -0.864,0.176Z" style="fill:#35416c;fill-rule:nonzero;"></path><path d="M125.424,47.561c-0.216,0 -0.396,-0.033 -0.54,-0.099c-0.145,-0.066 -0.261,-0.16 -0.35,-0.283c-0.088,-0.122 -0.15,-0.268 -0.187,-0.437c-0.037,-0.169 -0.055,-0.357 -0.055,-0.562l0,-3.822l1.264,0l0,3.866c0,0.127 0.023,0.213 0.07,0.257c0.046,0.044 0.092,0.066 0.136,0.066l0.062,0c0.017,0 0.041,-0.005 0.07,-0.015l0.147,0.926c-0.068,0.03 -0.153,0.054 -0.253,0.074c-0.101,0.02 -0.222,0.029 -0.364,0.029Z" style="fill:#35416c;fill-rule:nonzero;"></path><path d="M128.187,47.561c-0.269,0 -0.519,-0.043 -0.749,-0.128c-0.231,-0.086 -0.43,-0.211 -0.599,-0.375c-0.169,-0.164 -0.303,-0.366 -0.401,-0.607c-0.098,-0.24 -0.147,-0.512 -0.147,-0.815c0,-0.299 0.05,-0.568 0.151,-0.805c0.1,-0.238 0.232,-0.44 0.397,-0.607c0.164,-0.166 0.351,-0.294 0.562,-0.382c0.211,-0.088 0.429,-0.132 0.654,-0.132c0.27,0 0.505,0.046 0.706,0.14c0.201,0.093 0.367,0.22 0.499,0.382c0.133,0.161 0.232,0.35 0.298,0.566c0.066,0.215 0.099,0.446 0.099,0.691c0,0.112 -0.006,0.218 -0.018,0.316c-0.012,0.098 -0.023,0.169 -0.033,0.213l-2.095,0c0.059,0.22 0.164,0.373 0.316,0.459c0.152,0.086 0.331,0.129 0.537,0.129c0.127,0 0.251,-0.019 0.371,-0.055c0.12,-0.037 0.246,-0.092 0.378,-0.166l0.412,0.75c-0.201,0.142 -0.423,0.249 -0.665,0.32c-0.243,0.071 -0.467,0.106 -0.673,0.106Zm-0.691,-2.366l1.088,0c0,-0.142 -0.035,-0.266 -0.106,-0.372c-0.071,-0.105 -0.202,-0.158 -0.394,-0.158c-0.142,0 -0.265,0.042 -0.371,0.125c-0.105,0.084 -0.177,0.218 -0.217,0.405Z" style="fill:#35416c;fill-rule:nonzero;"></path><path d="M131.23,47.561c-0.171,0 -0.326,-0.03 -0.463,-0.092c-0.137,-0.061 -0.253,-0.143 -0.349,-0.246c-0.095,-0.103 -0.168,-0.223 -0.217,-0.36c-0.049,-0.137 -0.073,-0.282 -0.073,-0.434c0,-0.382 0.157,-0.682 0.47,-0.9c0.314,-0.218 0.823,-0.364 1.529,-0.437c-0.029,-0.255 -0.201,-0.382 -0.515,-0.382c-0.132,0 -0.272,0.025 -0.419,0.077c-0.147,0.051 -0.316,0.128 -0.507,0.231l-0.441,-0.823c0.26,-0.157 0.522,-0.277 0.787,-0.36c0.264,-0.083 0.541,-0.125 0.83,-0.125c0.476,0 0.849,0.136 1.121,0.408c0.272,0.272 0.408,0.709 0.408,1.312l0,2.043l-1.029,0l-0.088,-0.353l-0.029,0c-0.147,0.133 -0.303,0.239 -0.467,0.32c-0.164,0.081 -0.347,0.121 -0.548,0.121Zm0.441,-0.97c0.103,0 0.188,-0.023 0.254,-0.07c0.066,-0.046 0.133,-0.106 0.202,-0.18l0,-0.5c-0.304,0.045 -0.512,0.111 -0.625,0.199c-0.113,0.088 -0.169,0.184 -0.169,0.287c0,0.176 0.113,0.264 0.338,0.264Z" style="fill:#35416c;fill-rule:nonzero;"></path><path d="M134.214,47.473l0,-3.675l1.029,0l0.089,0.441l0.029,0c0.147,-0.142 0.315,-0.266 0.503,-0.371c0.189,-0.105 0.408,-0.158 0.658,-0.158c0.402,0 0.694,0.136 0.875,0.408c0.181,0.272 0.272,0.636 0.272,1.091l0,2.264l-1.264,0l0,-2.102c0,-0.235 -0.03,-0.392 -0.089,-0.47c-0.058,-0.079 -0.151,-0.118 -0.279,-0.118c-0.117,0 -0.215,0.025 -0.294,0.074c-0.078,0.049 -0.166,0.117 -0.264,0.205l0,2.411l-1.265,0Z" style="fill:#35416c;fill-rule:nonzero;"></path><path d="M141.3,45.151l-0.081,0.33l0.882,0l-0.081,-0.33c-0.059,-0.231 -0.118,-0.481 -0.176,-0.75c-0.059,-0.27 -0.118,-0.524 -0.177,-0.765l-0.029,0c-0.054,0.245 -0.109,0.501 -0.166,0.769c-0.056,0.267 -0.113,0.515 -0.172,0.746Zm-1.838,2.322l1.456,-4.777l1.528,0l1.456,4.777l-1.338,0l-0.235,-1.014l-1.338,0l-0.235,1.014l-1.294,0Z" style="fill:#35416c;fill-rule:nonzero;"></path><path d="M144.254,47.473l0,-3.675l1.265,0l0,3.675l-1.265,0Zm0.633,-4.131c-0.206,0 -0.375,-0.058 -0.508,-0.176c-0.132,-0.118 -0.198,-0.269 -0.198,-0.456c0,-0.186 0.066,-0.338 0.198,-0.455c0.133,-0.118 0.302,-0.177 0.508,-0.177c0.205,0 0.374,0.059 0.507,0.177c0.132,0.117 0.198,0.269 0.198,0.455c0,0.187 -0.066,0.338 -0.198,0.456c-0.133,0.118 -0.302,0.176 -0.507,0.176Z" style="fill:#35416c;fill-rule:nonzero;"></path><path d="M146.371,47.473l0,-3.675l1.029,0l0.088,0.632l0.03,0c0.137,-0.25 0.3,-0.432 0.489,-0.547c0.188,-0.115 0.373,-0.173 0.555,-0.173c0.112,0 0.203,0.006 0.271,0.018c0.069,0.013 0.13,0.031 0.184,0.055l-0.206,1.088c-0.068,-0.014 -0.133,-0.028 -0.194,-0.04c-0.062,-0.012 -0.134,-0.019 -0.217,-0.019c-0.132,0 -0.271,0.046 -0.415,0.136c-0.145,0.091 -0.261,0.252 -0.35,0.482l0,2.043l-1.264,0Z" style="fill:#35416c;fill-rule:nonzero;"></path></g></svg> 