<?xml version="1.0" encoding="UTF-8" standalone="no"?>
<svg
   xmlns:serif="http://www.serif.com/"
   xmlns:dc="http://purl.org/dc/elements/1.1/"
   xmlns:cc="http://creativecommons.org/ns#"
   xmlns:rdf="http://www.w3.org/1999/02/22-rdf-syntax-ns#"
   xmlns:svg="http://www.w3.org/2000/svg"
   xmlns="http://www.w3.org/2000/svg"
   xmlns:sodipodi="http://sodipodi.sourceforge.net/DTD/sodipodi-0.dtd"
   xmlns:inkscape="http://www.inkscape.org/namespaces/inkscape"
   width="155.11053"
   height="41.51408"
   viewBox="0 0 155.11053 41.51408"
   xml:space="preserve"
   style="clip-rule:evenodd;fill-rule:evenodd;stroke-linejoin:round;stroke-miterlimit:2"
   version="1.1"
   id="svg119"
   sodipodi:docname="crea_logo.svg"
   inkscape:version="1.0.2 (e86c8708, 2021-01-15)"><metadata
     id="metadata125"><rdf:RDF><cc:Work
         rdf:about=""><dc:format>image/svg+xml</dc:format><dc:type
           rdf:resource="http://purl.org/dc/dcmitype/StillImage" /><dc:title></dc:title></cc:Work></rdf:RDF></metadata><defs
     id="defs123" /><sodipodi:namedview
     pagecolor="#ffffff"
     bordercolor="#666666"
     borderopacity="1"
     objecttolerance="10"
     gridtolerance="10"
     guidetolerance="10"
     inkscape:pageopacity="0"
     inkscape:pageshadow="2"
     inkscape:window-width="1680"
     inkscape:window-height="1050"
     id="namedview121"
     showgrid="false"
     inkscape:zoom="7.1233766"
     inkscape:cx="77.816934"
     inkscape:cy="26.082"
     inkscape:window-x="0"
     inkscape:window-y="0"
     inkscape:window-maximized="0"
     inkscape:current-layer="svg119"
     fit-margin-top="5"
     fit-margin-left="5"
     fit-margin-right="5"
     fit-margin-bottom="5"
     lock-margins="true" /><g
     id="Layer-1"
     serif:id="Layer 1"
     transform="translate(0.81693378,-0.418)"><g
       id="g40"><g
         id="g38"><g
           id="g36"><path
             d="m 30.471,24.083 -7.466,7.465 3.84,3.84 c 1.581,-0.755 3.063,-1.784 4.373,-3.093 1.309,-1.309 2.338,-2.792 3.093,-4.373 z"
             style="fill:#27a59c;fill-rule:nonzero"
             id="path10" /><path
             d="m 17.779,36.774 c 3.061,0.435 6.223,-0.028 9.066,-1.386 l -3.84,-3.84 z"
             style="fill:#75b44c;fill-rule:nonzero"
             id="path12" /><path
             d="m 11.285,34.31 14.707,-14.707 4.479,4.48 -12.692,12.691 C 15.499,36.45 13.276,35.629 11.285,34.31 Z"
             style="fill:#35416c"
             id="path14" /><path
             d="m 35.697,18.857 c -0.324,-2.281 -1.145,-4.504 -2.464,-6.495 l -7.241,7.241 4.479,4.48 z"
             style="fill:#75b44c;fill-rule:nonzero"
             id="path16" /><path
             d="M 18.526,27.069 14.047,22.59 6.805,29.831 c 0.577,0.87 1.249,1.697 2.016,2.464 0.767,0.767 1.593,1.438 2.464,2.015 z"
             style="fill:#8bcad1;fill-rule:nonzero"
             id="path18" /><path
             d="m 4.341,23.336 c 0.324,2.281 1.145,4.504 2.464,6.495 l 7.242,-7.241 -4.48,-4.48 z"
             style="fill:#27a59c;fill-rule:nonzero"
             id="path20" /><path
             d="M 9.567,18.11 22.259,5.418 c 2.28,0.324 4.503,1.146 6.494,2.465 L 14.047,22.59 Z"
             style="fill:#75b44c"
             id="path22" /><path
             d="m 9.567,18.11 7.466,-7.465 -3.84,-3.84 C 11.612,7.56 10.13,8.589 8.821,9.898 7.511,11.207 6.482,12.69 5.728,14.27 Z"
             style="fill:#35416c;fill-rule:nonzero"
             id="path24" /><path
             d="M 5.728,14.27 C 4.37,17.113 3.906,20.275 4.341,23.336 L 9.567,18.11 Z"
             style="fill:#8bcad1;fill-rule:nonzero"
             id="path26" /><path
             d="m 43.355,21.122 c 0,-8.409 6.762,-15.257 15.171,-15.257 5.142,0 9.658,2.541 12.407,6.398 0.043,0.062 0.06,0.138 0.047,0.212 -0.013,0.074 -0.055,0.14 -0.117,0.183 -0.871,0.608 -3.942,2.747 -4.82,3.359 -0.062,0.043 -0.138,0.059 -0.212,0.046 -0.075,-0.014 -0.141,-0.057 -0.183,-0.119 -1.556,-2.245 -3.803,-3.621 -6.819,-3.621 -5.028,0 -8.625,3.858 -8.625,8.799 0,4.941 3.467,8.929 8.582,8.929 3.058,0 5.306,-1.376 6.862,-3.66 0.042,-0.063 0.109,-0.106 0.183,-0.12 0.075,-0.013 0.152,0.004 0.214,0.047 0.882,0.621 3.953,2.785 4.821,3.397 0.061,0.044 0.103,0.11 0.116,0.184 0.013,0.074 -0.004,0.15 -0.048,0.211 -2.749,3.856 -7.266,6.356 -12.408,6.356 -8.409,0 -15.171,-6.848 -15.171,-15.344"
             style="fill:#35416c;fill-rule:nonzero"
             id="path28" /><path
             d="m 79.764,19.972 c 0,0.156 0.126,0.283 0.283,0.283 0.963,0 4.051,0 4.051,0 2.991,0 4.291,-1.951 4.291,-3.944 0,-1.994 -1.343,-4.118 -4.118,-4.118 h -4.224 c -0.075,0 -0.147,0.03 -0.2,0.083 -0.054,0.053 -0.083,0.125 -0.083,0.2 0,1.249 0,6.248 0,7.496 z m 1.427,5.786 c -0.052,-0.08 -0.141,-0.128 -0.237,-0.128 -0.22,0 -0.63,0 -0.907,0 -0.075,0 -0.147,0.03 -0.2,0.083 -0.054,0.053 -0.083,0.125 -0.083,0.2 0,1.493 0,8.43 0,9.923 0,0.156 -0.127,0.283 -0.284,0.283 -1.107,0 -5.131,0 -6.238,0 -0.157,0 -0.284,-0.127 -0.284,-0.283 0,-2.859 0,-26.439 0,-29.298 0,-0.075 0.03,-0.147 0.083,-0.2 0.053,-0.053 0.125,-0.083 0.201,-0.083 h 11.94 c 6.935,0 10.056,4.941 10.056,9.883 0,4.089 -2.092,7.687 -6.635,8.997 -0.087,0.025 -0.158,0.091 -0.188,0.177 -0.03,0.086 -0.017,0.182 0.036,0.257 1.113,1.572 5.883,8.298 7.163,10.103 0.061,0.086 0.069,0.2 0.02,0.294 -0.048,0.094 -0.145,0.153 -0.251,0.153 -1.62,0 -6.323,0 -7.231,0 -0.096,0 -0.185,-0.048 -0.237,-0.127 -0.73,-1.112 -5.994,-9.123 -6.724,-10.234 z"
             style="fill:#35416c;fill-rule:nonzero"
             id="path30" /><path
             d="m 117.449,30.181 c 0.075,0 0.147,0.03 0.201,0.083 0.053,0.054 0.083,0.126 0.083,0.201 v 5.371 c 0,0.156 -0.127,0.283 -0.284,0.283 -2.218,0 -16.763,0 -18.981,0 -0.157,0 -0.284,-0.127 -0.284,-0.283 0,-2.859 0,-26.439 0,-29.298 0,-0.156 0.127,-0.283 0.284,-0.283 2.191,0 16.4,0 18.591,0 0.156,0 0.283,0.127 0.283,0.283 0,1.002 0,4.37 0,5.372 0,0.156 -0.127,0.283 -0.283,0.283 h -11.786 c -0.076,0 -0.148,0.03 -0.201,0.083 -0.053,0.053 -0.083,0.125 -0.083,0.2 v 5.589 c 0,0.075 0.03,0.147 0.083,0.2 0.053,0.053 0.125,0.083 0.201,0.083 h 10.269 c 0.075,0 0.147,0.03 0.2,0.083 0.054,0.053 0.083,0.125 0.083,0.2 0,1.024 0,4.522 0,5.545 0,0.076 -0.029,0.148 -0.083,0.201 -0.053,0.053 -0.125,0.083 -0.2,0.083 -1.525,0 -8.744,0 -10.269,0 -0.157,0 -0.284,0.127 -0.284,0.283 0,0.975 0,4.18 0,5.155 0,0.156 0.127,0.283 0.284,0.283 1.695,0 10.48,0 12.176,0 z"
             style="fill:#35416c;fill-rule:nonzero"
             id="path32" /><path
             d="m 137.627,23.289 c 0.091,0 0.176,-0.043 0.229,-0.116 0.054,-0.074 0.069,-0.168 0.041,-0.254 -0.484,-1.495 -2.297,-7.096 -2.989,-9.237 -0.038,-0.117 -0.147,-0.196 -0.27,-0.196 -0.124,0 -0.232,0.08 -0.27,0.197 -0.684,2.142 -2.474,7.744 -2.951,9.237 -0.028,0.086 -0.013,0.18 0.041,0.253 0.053,0.073 0.138,0.116 0.229,0.116 1.186,0 4.752,0 5.94,0 z m 2.361,6.091 c -0.038,-0.117 -0.147,-0.196 -0.27,-0.196 -1.334,0 -8.738,0 -10.076,0 -0.123,0 -0.233,0.08 -0.27,0.198 -0.32,1.004 -1.765,5.536 -2.085,6.54 -0.037,0.118 -0.147,0.197 -0.27,0.197 -0.998,0 -5.315,0 -6.668,0 -0.092,0 -0.179,-0.045 -0.232,-0.121 -0.053,-0.076 -0.066,-0.173 -0.033,-0.26 1.222,-3.303 9.979,-26.965 10.843,-29.298 0.041,-0.111 0.147,-0.185 0.266,-0.185 1.049,0 5.966,0 7.017,0 0.118,0 0.224,0.074 0.266,0.185 0.86,2.335 9.583,25.997 10.8,29.298 0.032,0.087 0.02,0.184 -0.033,0.26 -0.053,0.076 -0.14,0.121 -0.233,0.121 -1.347,0 -5.635,0 -6.626,0 -0.123,0 -0.232,-0.079 -0.27,-0.195 -0.325,-1.002 -1.801,-5.542 -2.126,-6.544 z"
             style="fill:#35416c;fill-rule:nonzero"
             id="path34" /></g></g></g></g></svg>
